<svg xmlns="http://www.w3.org/2000/svg" xmlns:xlink="http://www.w3.org/1999/xlink" width="119" zoomAndPan="magnify" viewBox="0 0 89.25 30.000001" height="40" preserveAspectRatio="xMidYMid meet" version="1.0"><defs><g/><clipPath id="6fb798b10f"><path d="M 3 0 L 87.449219 0 L 87.449219 29.03125 L 3 29.03125 Z M 3 0 " clip-rule="nonzero"/></clipPath><clipPath id="6b4695fb68"><path d="M 1 0 L 21 0 L 21 20 L 1 20 Z M 1 0 " clip-rule="nonzero"/></clipPath><clipPath id="ef347df1e0"><path d="M 22 0 L 42 0 L 42 20 L 22 20 Z M 22 0 " clip-rule="nonzero"/></clipPath><clipPath id="08af2a5e08"><path d="M 43 0 L 62 0 L 62 20 L 43 20 Z M 43 0 " clip-rule="nonzero"/></clipPath><clipPath id="19db68e88d"><path d="M 63 0 L 83 0 L 83 20 L 63 20 Z M 63 0 " clip-rule="nonzero"/></clipPath><clipPath id="62a3aa0e09"><rect x="0" width="85" y="0" height="30"/></clipPath></defs><g clip-path="url(#6fb798b10f)"><g transform="matrix(1, 0, 0, 1, 3, 0.000000000000005692)"><g clip-path="url(#62a3aa0e09)"><g clip-path="url(#6b4695fb68)"><g fill="#000000" fill-opacity="1"><g transform="translate(0.979837, 19.770327)"><g><path d="M 8.265625 0 L 8.265625 -17.96875 L 0.890625 -17.96875 L 0.890625 -22.078125 L 19.703125 -22.078125 L 19.703125 -17.96875 L 12.359375 -17.96875 L 12.359375 0 Z M 8.265625 0 "/></g></g></g></g><g clip-path="url(#ef347df1e0)"><g fill="#000000" fill-opacity="1"><g transform="translate(21.565935, 19.770327)"><g><path d="M 8.265625 -4.3125 C 6.859375 -4.613281 5.597656 -5.203125 4.484375 -6.078125 C 3.367188 -6.960938 2.488281 -8.046875 1.84375 -9.328125 C 1.207031 -10.609375 0.890625 -12 0.890625 -13.5 L 0.890625 -22.078125 L 4.984375 -22.078125 L 4.984375 -13.5 C 4.984375 -12.53125 5.21875 -11.640625 5.6875 -10.828125 C 6.164062 -10.015625 6.804688 -9.367188 7.609375 -8.890625 C 8.421875 -8.410156 9.320312 -8.171875 10.3125 -8.171875 C 11.28125 -8.171875 12.164062 -8.410156 12.96875 -8.890625 C 13.78125 -9.367188 14.425781 -10.015625 14.90625 -10.828125 C 15.394531 -11.640625 15.640625 -12.53125 15.640625 -13.5 L 15.640625 -22.078125 L 19.703125 -22.078125 L 19.703125 -13.5 C 19.703125 -12 19.378906 -10.609375 18.734375 -9.328125 C 18.097656 -8.046875 17.222656 -6.960938 16.109375 -6.078125 C 14.992188 -5.203125 13.734375 -4.613281 12.328125 -4.3125 L 12.328125 0 L 8.265625 0 Z M 8.265625 -4.3125 "/></g></g></g></g><g clip-path="url(#08af2a5e08)"><g fill="#000000" fill-opacity="1"><g transform="translate(42.152033, 19.770327)"><g><path d="M 0.890625 -22.078125 L 5.703125 -22.078125 L 10.3125 -14.84375 L 12.703125 -11.03125 L 15.640625 -6.4375 L 15.640625 -22.078125 L 19.734375 -22.078125 L 19.734375 0 L 14.875 0 L 10.3125 -7.21875 L 7.890625 -11.03125 L 4.984375 -15.640625 L 4.984375 0 L 0.890625 0 Z M 0.890625 -22.078125 "/></g></g></g></g><g clip-path="url(#19db68e88d)"><g fill="#000000" fill-opacity="1"><g transform="translate(62.738131, 19.770327)"><g><path d="M 4.984375 -7.46875 L 4.984375 0 L 0.890625 0 L 0.890625 -22.078125 L 4.984375 -22.078125 L 4.984375 -14.59375 L 13.53125 -22.078125 L 19.703125 -22.078125 L 7.09375 -11.03125 L 19.703125 0 L 13.53125 0 Z M 4.984375 -7.46875 "/></g></g></g></g><g fill="#000000" fill-opacity="1"><g transform="translate(83.363994, 19.770327)"><g/></g></g></g></g></g></svg>